<?xml version="1.0" encoding="utf-8"?>
<!-- Generator: Adobe Illustrator 19.0.0, SVG Export Plug-In . SVG Version: 6.00 Build 0)  -->
<svg version="1.1" id="Layer_1" xmlns="http://www.w3.org/2000/svg" xmlns:xlink="http://www.w3.org/1999/xlink" x="0px" y="0px"
	 viewBox="0 0 45.4 51" style="enable-background:new 0 0 45.4 51;" xml:space="preserve">
<style type="text/css">
	.st0{fill:#FFFFFF;}
</style>
<g id="XMLID_1_">
	<g id="XMLID_85_">
		<path id="XMLID_87_" class="st0" d="M22.7,1.5l20.9,12v23l-3.3-1.9V15.9v-0.5l-0.4-0.2L23.1,5.6l-0.4-0.2l-0.4,0.2L5.6,15.2
			l-0.4,0.2v0.5v18.6l-3.3,1.9v-23L22.7,1.5 M22.7,0.5L1,13V38l5-2.9V15.9l16.7-9.6l16.7,9.6v19.1l5,2.9V13L22.7,0.5L22.7,0.5z"/>
	</g>
	<g id="XMLID_68_">
		<path id="XMLID_80_" class="st0" d="M39.3,36l3.3,1.9l-20,11.6L2.7,38L6,36l16.2,9.4l0.4,0.2l0.4-0.2L39.3,36 M39.3,35.1
			l-16.7,9.6L6,35.1L1,38l21.7,12.5L44.4,38L39.3,35.1L39.3,35.1z"/>
	</g>
	<g id="XMLID_64_">
		<g id="XMLID_65_">
			<path id="XMLID_58_" class="st0" d="M15.1,27.2v6.3l-3.3-1.9v-4.4H15.1 M16,26.3h-5v5.8l5,2.9V26.3L16,26.3z"/>
		</g>
		<g id="XMLID_84_">
			<path id="XMLID_55_" class="st0" d="M24.2,14.5v22.7l-1.6,0.9l-1.6-0.9V14.5H24.2 M25,13.6h-5v24l2.5,1.4l2.5-1.4V13.6L25,13.6z"
				/>
		</g>
		<g id="XMLID_86_">
			<path id="XMLID_71_" class="st0" d="M33.3,22.4v9.3L30,33.6V22.4H33.3 M34.2,21.6h-5V35l5-2.9V21.6L34.2,21.6z"/>
		</g>
	</g>
</g>
</svg>
