<?xml version="1.0" encoding="utf-8"?>
<!-- Generator: Adobe Illustrator 19.0.0, SVG Export Plug-In . SVG Version: 6.00 Build 0)  -->
<svg version="1.1" id="Layer_1" xmlns="http://www.w3.org/2000/svg" xmlns:xlink="http://www.w3.org/1999/xlink" x="0px" y="0px"
	 viewBox="0 0 283.5 127.6" style="enable-background:new 0 0 283.5 127.6;" xml:space="preserve">
<style type="text/css">
	.st0{fill:#FFFFFF;}
</style>
<g id="XMLID_1_">
	<path id="XMLID_85_" class="st0" d="M56,3.3l52.5,30.2v57.8l-8.4-4.8V39.6v-1.2L99,37.8L57,13.6L56,13l-1.1,0.6l-42,24.2l-1.1,0.6
		v1.2v46.9l-8.3,4.8V33.6L56,3.3 M56,0.9L1.4,32.4v62.8L14,87.8V39.6l42-24.2l42,24.2v48.2l12.7,7.3V32.4L56,0.9L56,0.9z"/>
	<path id="XMLID_68_" class="st0" d="M97.9,90.3l8.4,4.8L56,124.2L5.7,95.1l8.3-4.8l40.9,23.7l1.1,0.6l1.1-0.6L97.9,90.3 M97.9,87.8
		l-42,24.3L14,87.8L1.4,95.1L56,126.7l54.7-31.6L97.9,87.8L97.9,87.8z"/>
	<g id="XMLID_64_">
		<path id="XMLID_65_" class="st0" d="M36.9,68v16l-8.4-4.8V68H36.9 M39.1,65.8H26.4v14.6l12.7,7.2V65.8L39.1,65.8z"/>
		<path id="XMLID_84_" class="st0" d="M59.8,36v57.2l-4.2,2.4l-4.2-2.4V36H59.8 M62,33.9H49.4v60.6l6.3,3.6l6.3-3.6V33.9L62,33.9z"
			/>
		<path id="XMLID_86_" class="st0" d="M82.8,56v23.3L74.5,84V56H82.8 M85,53.8H72.4v33.9L85,80.5V53.8L85,53.8z"/>
	</g>
	<g id="XMLID_137_">
		<path id="XMLID_138_" class="st0" d="M141.6,40.7h17.3v4.1h-12.6v9.5h12.1v4.1h-12.1v14.8h-4.7V40.7z"/>
		<path id="XMLID_140_" class="st0" d="M168.4,44.1h-4.9v-4.9h4.9V44.1z M163.7,49.4h4.4v23.7h-4.4V49.4z"/>
		<path id="XMLID_143_" class="st0" d="M195.5,72.2c0,7.2-3.7,11.4-12.2,11.4c-2.5,0-4.7-0.3-8.5-1.6l0.5-4c3.3,1.5,5.4,2.1,8.6,2.1
			c4.6,0,7.4-3.1,7.4-8.1v-2.3h-0.1c-1.9,2.5-4.9,3.7-8,3.7c-6.8,0-10.1-5.5-10.1-11.7c0-6.1,3.4-12.6,10.6-12.6
			c4.2,0,6.5,1.5,7.8,4.1h0.1v-3.5h4.1V72.2z M191.2,61.6c0-4.9-2.3-9.2-6.9-9.2c-4.4,0-6.6,4.8-6.6,8.8c0,4.5,2.5,8.4,6.6,8.4
			C188.3,69.6,191.2,66,191.2,61.6z"/>
		<path id="XMLID_146_" class="st0" d="M222.4,73.2h-4.2v-3.8h-0.1c-1.3,2.7-4.5,4.3-7.8,4.3c-6.1,0-8.9-3.8-8.9-10.2V49.4h4.4v12.3
			c0,5.5,1.2,8.2,5,8.5c5,0,7.2-4,7.2-9.8v-11h4.4V73.2z"/>
		<path id="XMLID_148_" class="st0" d="M228.4,49.4h4.1v3.7h0.1c1.2-2.5,3.7-4.2,6.2-4.2c1.3,0,2,0.1,2.9,0.3v3.9
			c-0.8-0.3-1.7-0.4-2.4-0.4c-3.9,0-6.5,3.7-6.5,9.7v10.8h-4.4V49.4z"/>
		<path id="XMLID_150_" class="st0" d="M263.1,72.2c-1.7,0.6-3.6,1.5-7.5,1.5c-8.4,0-12.3-5.1-12.3-12.8c0-7,4.4-12,11.1-12
			c7.9,0,10.5,5.8,10.5,13.4H248c0,4.7,3.7,7.9,7.8,7.9c2.9,0,6.2-1.5,7.3-2.4V72.2z M260.3,59c0-3.6-2.1-6.6-5.9-6.6
			c-4.3,0-6,3.5-6.4,6.6H260.3z"/>
		<path id="XMLID_153_" class="st0" d="M267.5,68.5c1.7,1.1,4.2,1.7,5.4,1.7c2,0,4.5-0.8,4.5-3.4c0-4.3-10.3-4-10.3-10.6
			c0-4.9,3.7-7.3,8.4-7.3c2,0,3.7,0.4,5.4,0.9l-0.4,3.8c-1-0.6-3.6-1.2-4.6-1.2c-2.2,0-4.2,0.9-4.2,2.9c0,4.8,10.3,3.4,10.3,11
			c0,5.1-4,7.4-8.3,7.4c-2.2,0-4.5-0.2-6.5-1.3L267.5,68.5z"/>
	</g>
	<g id="XMLID_131_">
		<path id="XMLID_132_" class="st0" d="M141.4,89.7h1.4v4.5h0c0.4-0.7,1.1-1.2,2.4-1.2c2.1,0,3.2,1.7,3.2,3.7c0,2-0.9,4-3.1,4
			c-1.3,0-2.1-0.7-2.5-1.2h0v1h-1.3V89.7z M144.9,94.1c-1.5,0-2.2,1.4-2.2,2.8c0,1.2,0.6,2.7,2.2,2.7c1.5,0,2.1-1.6,2-2.8
			C147,95.5,146.4,94.1,144.9,94.1z"/>
		<path id="XMLID_135_" class="st0" d="M150,102.5c0.2,0.1,0.4,0.1,0.6,0.1c1.2,0,1.6-1.7,1.6-1.8c0-0.2-0.2-0.5-0.3-0.8l-2.5-6.8
			h1.5l2,6.1h0l2-6.1h1.4l-2.7,7.5c-0.5,1.4-1,3-2.8,3c-0.4,0-0.7-0.1-0.9-0.1L150,102.5z"/>
	</g>
	<g id="XMLID_69_">
		<path id="XMLID_70_" class="st0" d="M162.6,90.8c1.1-0.6,2.3-1.1,3.8-1.1c3.3,0,4.6,1.6,4.6,4.7v4.7c0,1.3,0,1.9,0.1,2.2h-2v-1.5
			h0c-0.5,0.7-1.6,1.7-3.5,1.7c-2.5,0-4.2-1.1-4.2-3.6c0-2.9,3.1-3.8,5.3-3.8c0.8,0,1.4,0,2.2,0c0-2-0.7-3-2.8-3
			c-1.2,0-2.5,0.4-3.3,1.2L162.6,90.8z M168.8,96c-0.4,0-0.9,0-1.3,0c-1.1,0-4,0.2-4,2.2c0,1.2,1.2,1.9,2.1,1.9c2.1,0,3.2-1.3,3.2-3
			V96z"/>
		<path id="XMLID_88_" class="st0" d="M174.3,90h2v1.6h0c0.6-0.9,1.9-1.9,3.9-1.9c3.3,0,4.9,2.7,4.9,5.8c0,3.1-1.5,6.2-4.9,6.2
			c-2,0-3.2-0.8-3.8-1.8h0v6.3h-2.1V90z M179.8,91.4c-2.3,0-3.4,2.2-3.4,4.3c0,1.9,1,4.2,3.4,4.2c2.3,0,3.2-2.5,3.2-4.3
			C183,93.6,182.1,91.4,179.8,91.4z"/>
		<path id="XMLID_91_" class="st0" d="M187.8,90h2v1.6h0c0.6-0.9,1.9-1.9,3.9-1.9c3.3,0,4.9,2.7,4.9,5.8c0,3.1-1.5,6.2-4.9,6.2
			c-2,0-3.2-0.8-3.8-1.8h0v6.3h-2.1V90z M193.3,91.4c-2.3,0-3.4,2.2-3.4,4.3c0,1.9,1,4.2,3.4,4.2c2.3,0,3.2-2.5,3.2-4.3
			C196.4,93.6,195.6,91.4,193.3,91.4z"/>
		<path id="XMLID_111_" class="st0" d="M200.4,99.2c0.8,0.5,2,0.8,2.6,0.8c1,0,2.1-0.4,2.1-1.6c0-2.1-4.9-1.9-4.9-5.1
			c0-2.4,1.8-3.5,4-3.5c1,0,1.8,0.2,2.6,0.4l-0.2,1.8c-0.5-0.3-1.7-0.6-2.2-0.6c-1.1,0-2,0.4-2,1.4c0,2.3,4.9,1.7,4.9,5.3
			c0,2.4-1.9,3.6-4,3.6c-1.1,0-2.2-0.1-3.1-0.6L200.4,99.2z"/>
		<path id="XMLID_116_" class="st0" d="M218.5,100.9c-0.8,0.3-1.7,0.7-3.6,0.7c-4,0-5.9-2.5-5.9-6.2c0-3.4,2.1-5.8,5.3-5.8
			c3.8,0,5,2.8,5,6.4h-8.1c0,2.3,1.8,3.8,3.8,3.8c1.4,0,3-0.7,3.5-1.1V100.9z M217.2,94.6c0-1.7-1-3.2-2.8-3.2
			c-2.1,0-2.9,1.7-3.1,3.2H217.2z"/>
		<path id="XMLID_119_" class="st0" d="M222,90h2v1.7h0c0.8-1.3,1.9-1.9,3.6-1.9c1.3,0,2.6,0.7,3.2,2.2c0.8-1.6,2.5-2.2,3.5-2.2
			c2.9,0,4,1.9,4,4.4v7.3h-2.1v-6.8c0-1.4-0.3-3.2-2-3.2c-2.1,0-3,2.1-3,4.2v5.7h-2.1v-6.8c0-1.4-0.3-3.2-2-3.2c-2.1,0-3,2.1-3,4.2
			v5.7H222V90z"/>
		<path id="XMLID_121_" class="st0" d="M241.8,84.6h2.1v6.9h0c0.6-1.1,1.8-1.8,3.8-1.8c3.3,0,4.9,2.7,4.9,5.8c0,3.1-1.5,6.2-4.9,6.2
			c-2,0-3.3-1-3.9-1.9h0v1.6h-2V84.6z M247.2,91.4c-2.3,0-3.4,2.2-3.4,4.3c0,1.9,1,4.2,3.4,4.2c2.3,0,3.2-2.5,3.2-4.3
			C250.4,93.6,249.5,91.4,247.2,91.4z"/>
		<path id="XMLID_124_" class="st0" d="M255.5,84.6h2.1v16.8h-2.1V84.6z"/>
		<path id="XMLID_126_" class="st0" d="M270,100.9c-0.8,0.3-1.7,0.7-3.6,0.7c-4,0-5.9-2.5-5.9-6.2c0-3.4,2.1-5.8,5.3-5.8
			c3.8,0,5,2.8,5,6.4h-8.1c0,2.3,1.8,3.8,3.8,3.8c1.4,0,3-0.7,3.5-1.1V100.9z M268.7,94.6c0-1.7-1-3.2-2.8-3.2
			c-2.1,0-2.9,1.7-3.1,3.2H268.7z"/>
		<path id="XMLID_129_" class="st0" d="M273.5,90h2v1.8h0c0.6-1.2,1.8-2,3-2c0.6,0,0.9,0.1,1.4,0.2v1.9c-0.4-0.2-0.8-0.2-1.2-0.2
			c-1.9,0-3.1,1.8-3.1,4.7v5.2h-2.1V90z"/>
	</g>
</g>
</svg>
